<svg xmlns="http://www.w3.org/2000/svg" viewBox="0 0 100 100" role="img" aria-label="Eleven One Research"><title>Eleven One Research</title><g fill="#FAFAF9"><circle cx="86.17" cy="8.90" r="0.96"/><circle cx="45.66" cy="2.24" r="0.69"/><circle cx="54.35" cy="10.65" r="2.15"/><circle cx="79.36" cy="22.59" r="3.29"/><circle cx="32.48" cy="18.89" r="1.11"/><circle cx="36.07" cy="28.19" r="2.15"/><circle cx="61.97" cy="33.56" r="3.29"/><circle cx="85.01" cy="38.73" r="4.50"/><circle cx="8.86" cy="39.46" r="0.69"/><circle cx="31.28" cy="41.76" r="2.15"/><circle cx="49.40" cy="49.03" r="3.29"/><circle cx="70.95" cy="55.29" r="4.50"/><circle cx="92.10" cy="65.02" r="3.56"/><circle cx="10.43" cy="59.96" r="2.15"/><circle cx="33.54" cy="62.13" r="3.29"/><circle cx="55.52" cy="70.70" r="4.50"/><circle cx="74.88" cy="76.00" r="5.77"/><circle cx="95.93" cy="83.07" r="1.30"/><circle cx="19.62" cy="79.88" r="3.29"/><circle cx="40.27" cy="85.40" r="4.50"/><circle cx="61.09" cy="91.99" r="3.56"/><circle cx="79.18" cy="97.79" r="1.30"/><circle cx="4.10" cy="94.37" r="0.96"/></g></svg>